<svg xmlns="http://www.w3.org/2000/svg" viewBox="0 0 543.89 314.86"><title>logo-mastercard</title><path d="M157.46,314.86c86.9,0,157.39-70.56,157.39-157.46A157.43,157.43,0,1,0,157.46,314.86Z" fill="#e2001a"/><path d="M386.5,314.86c86.9,0,157.39-70.56,157.39-157.46a157.39,157.39,0,0,0-314.78,0c0,86.9,70.41,157.46,157.39,157.46Z" fill="#f6a800"/><path d="M271.87,265.39a157.64,157.64,0,0,1-.79-215.06h0l3.31,1.73h0a157.39,157.39,0,0,1-.29,211h0l-2.23,2.3Z" fill="#eb690a"/><polygon points="30.89 117.94 44.64 117.94 62.28 161.93 78.05 117.94 92.59 117.94 92.59 176.54 81.29 176.54 81.29 133.06 66.17 176.54 57.6 176.54 42.48 133.63 42.48 176.54 30.89 176.54 30.89 117.94" fill="#fff"/><polygon points="150.48 176.54 150.48 131.69 140.83 131.69 140.83 176.54 150.48 176.54" fill="#fff"/><polygon points="214.99 176.54 214.99 118.73 204.84 118.73 204.84 176.54 214.99 176.54" fill="#fff"/><polygon points="199.01 131.69 199.01 142.42 221.62 142.42 221.62 131.69 199.01 131.69" fill="#fff"/><polygon points="428.18 176.54 428.18 131.69 418.54 131.69 418.54 176.54 428.18 176.54" fill="#fff"/><polygon points="515.3 176.54 515.3 120.46 505.66 120.46 505.66 176.54 515.3 176.54" fill="#fff"/><path d="M296.78,131.69h-10v44.86h10.15V146.88h0c2.38-4.82,9.5-5.83,10.66-5.83h0V131.4h0c-2.38,0-10.51,1.8-10.8,6.19h0v-5.9Z" fill="#fff"/><path d="M450.22,131.69H440.14v44.86h10.23V146.88h0c2.3-4.82,9.5-5.83,10.58-5.83h0V131.4h0c-2.3,0-10.44,1.8-10.73,6.19h0v-5.9Z" fill="#fff"/><path d="M180.72,144.5h9.86c0-7.85-5-12.67-13.32-12.67s-14.83,4.32-14.83,14,10.15,11,11.81,11.45c2,.57,7.56,1.22,7.56,7.34,0,2.3-2.74,2.88-5.11,2.88A4.62,4.62,0,0,1,172,163H161c0,10.08,7.85,14.11,15.7,14.11s15.34-6.34,15.34-14-7.34-11.88-13.1-12.74c-8.71-1.22-7.85-8.78-2.81-8.78,4.75,0,4.46,2.09,4.61,2.88Z" fill="#fff"/><path d="M361.51,160.49A19.48,19.48,0,1,1,346.18,129a19.34,19.34,0,0,1,15.19,7.27H374a30.1,30.1,0,0,0-27.86-18.36,30.56,30.56,0,1,0,0,61.13,30.9,30.9,0,0,0,28.08-18.58H361.51Z" fill="#fff"/><path d="M492.12,177.62a23.36,23.36,0,1,0,0-46.73v9.94a13.43,13.43,0,1,1,0,26.86Zm0,0h0v-9.94h0a13.43,13.43,0,1,1,0-26.86h0V130.9h0a23.36,23.36,0,1,0,0,46.73Z" fill="#fff"/><path d="M405,177.62a23.36,23.36,0,1,0,0-46.73h0v9.94h0a13.43,13.43,0,1,1,0,26.86h0v9.94Zm0-46.73a23.36,23.36,0,1,0,0,46.73v-9.94a13.43,13.43,0,1,1,0-26.86Z" fill="#fff"/><path d="M252.65,158.9h22.82a19,19,0,0,0,.14-2v-1.94c-.36-10.44-6.91-23.26-23-23.4v10.87c5.47,0,10.87,2.52,10.87,7.49H252.65v9Zm0,18.87c9.07-.14,21.82-6,21.82-13.61H262.3c0,1.8-4.68,3.46-9.65,3.38ZM241.49,158.9h11.16v-9H241.78c0-5,5.4-7.49,10.87-7.49V131.54h-.29c-14.54,0-22.46,12.1-22.54,23.9v.43c.22,11.16,7.34,21.89,22.39,21.89h.43V167.54c-5.47-.07-11.16-2.31-11.16-8.64Z" fill="#fff"/><path d="M127.37,177.62a23.36,23.36,0,1,0,0-46.73v9.94a13.43,13.43,0,1,1,0,26.86Zm0,0h0v-9.94h0a13.43,13.43,0,1,1,0-26.86h0V130.9h0a23.36,23.36,0,1,0,0,46.73Z" fill="#fff"/></svg>